<?xml version="1.0" standalone="no"?>
<!DOCTYPE svg PUBLIC "-//W3C//DTD SVG 1.1//EN" "http://www.w3.org/Graphics/SVG/1.1/DTD/svg11.dtd" >
<svg xmlns="http://www.w3.org/2000/svg">
<metadata></metadata>
<defs>
<font id="wasabilight" horiz-adv-x="778" >
<font-face units-per-em="2048" ascent="1536" descent="-512" />
<missing-glyph horiz-adv-x="409" />
<glyph unicode="&#xfb01;" horiz-adv-x="790" d="M68 860v72h102v106q0 119 74.5 206t191.5 87v-71q-85 0 -137.5 -64t-52.5 -154v-110h422v-932h-74v860h-348v-860h-76v860h-102zM565 1266q0 28 19 46.5t47 18.5q26 0 44.5 -18.5t18.5 -46.5t-18.5 -47t-44.5 -19q-28 0 -47 19t-19 47z" />
<glyph unicode="&#xfb02;" horiz-adv-x="784" d="M68 860v72h102v106q0 119 74.5 206t191.5 87h228v-1331h-54l-20 35v1225h-154q-85 0 -137.5 -64t-52.5 -154v-110h168v-72h-168v-860h-76v860h-102z" />
<glyph unicode="&#xfb03;" horiz-adv-x="1259" d="M68 860v72h102v106q0 119 74.5 206t191.5 87v-71q-85 0 -137.5 -64t-52.5 -154v-110h393v106q0 119 74.5 206t191.5 87v-71q-85 0 -137.5 -64t-52.5 -154v-110h422v-932h-74v860h-348v-860h-76v860h-393v-860h-76v860h-102zM1034 1266q0 28 19 46.5t47 18.5 q26 0 44.5 -18.5t18.5 -46.5t-18.5 -47t-44.5 -19q-28 0 -47 19t-19 47z" />
<glyph unicode="&#xfb04;" horiz-adv-x="1255" d="M68 860v72h102v106q0 119 74.5 206t191.5 87v-71q-85 0 -137.5 -64t-52.5 -154v-110h393v106q0 119 74.5 206t191.5 87h230v-1331h-56l-18 35v1225h-156q-85 0 -137.5 -64t-52.5 -154v-110h168v-72h-168v-860h-76v860h-393v-860h-76v860h-102z" />
<glyph horiz-adv-x="2048" />
<glyph horiz-adv-x="2048" />
<glyph unicode="&#xd;" horiz-adv-x="2048" />
<glyph unicode=" "  horiz-adv-x="409" />
<glyph unicode="&#x09;" horiz-adv-x="409" />
<glyph unicode="&#xa0;" horiz-adv-x="409" />
<glyph unicode="!" horiz-adv-x="540" d="M201 53q0 30 19 50t48 20t49.5 -20.5t20.5 -49.5t-20 -48t-50 -19q-29 0 -48 19t-19 48zM231 315v1016h76v-1016h-76z" />
<glyph unicode="&#x22;" horiz-adv-x="468" d="M59 1276q0 29 20.5 50.5t49.5 21.5q27 0 47.5 -21.5t20.5 -50.5l-47 -207h-44zM272 1276q0 29 20.5 50.5t49.5 21.5q27 0 47.5 -21.5t20.5 -50.5l-48 -207h-43z" />
<glyph unicode="#" horiz-adv-x="944" d="M57 420v72h162v362h-162v72h162v237h72v-237h362v237h72v-237h162v-72h-162v-362h162v-72h-162v-238h-72v238h-362v-238h-72v238h-162zM291 492h362v362h-362v-362z" />
<glyph unicode="$" horiz-adv-x="806" d="M139 977q0 113 73 184t185 82v88h70v-86q140 -13 256 -123l-51 -53q-107 107 -238 107q-92 0 -156.5 -54.5t-64.5 -144.5q0 -50 29 -96.5t75.5 -84.5t103 -76t113 -78t103 -82t75.5 -97t29 -115q0 -106 -80 -178.5t-194 -81.5v-88h-70v86q-139 16 -243 123l53 51 q95 -102 227 -102q95 0 164.5 54.5t69.5 135.5q0 51 -29 98.5t-76 86t-103.5 76t-112.5 77t-103 81t-76 96t-29 114.5z" />
<glyph unicode="%" horiz-adv-x="1490" d="M57 885v182q0 124 89 206.5t214 82.5q123 0 213.5 -83t90.5 -206v-182q0 -126 -90.5 -208.5t-213.5 -82.5q-126 0 -214.5 82t-88.5 209zM121 885q0 -98 71 -162t168 -64q96 0 167 64t71 162v182q0 97 -71 160t-167 63q-97 0 -168 -63t-71 -160v-182zM326 0l759 1331h74 l-762 -1331h-71zM825 266v183q0 124 91 207t214 83t213.5 -82.5t90.5 -207.5v-183q0 -123 -90.5 -207t-213.5 -84t-214 84t-91 207zM891 266q0 -97 72 -161t167 -64t166.5 64t71.5 161v183q0 98 -71 160.5t-167 62.5t-167.5 -62.5t-71.5 -160.5v-183z" />
<glyph unicode="&#x26;" horiz-adv-x="1089" d="M88 289q0 61 17.5 116.5t44.5 98.5t71 86t85.5 74t99.5 69l-74 107q-50 77 -74.5 134t-24.5 126q0 39 16.5 81.5t49 82.5t90.5 66t131 26q57 0 105 -20t78 -49.5t51.5 -65.5t30 -66.5t8.5 -54.5q0 -27 -1.5 -45.5t-12.5 -55t-30.5 -68t-60.5 -73.5t-98 -82l-82 -59 l297 -428q101 129 143 256l72 -23q-56 -158 -172 -295l135 -192l-61 -45l-125 178q-190 -193 -381 -193q-136 0 -232 86.5t-96 227.5zM162 289q0 -107 74.5 -174.5t179.5 -67.5q88 0 176 48.5t164 131.5l-312 449q-63 -43 -108.5 -81t-87.5 -86t-64 -103.5t-22 -116.5z M309 1100q0 -54 20.5 -101.5t63.5 -115.5l74 -107l84 58q47 32 80.5 66.5t49.5 60.5t25 56.5t10 45.5t1 37q0 17 -6.5 39t-21.5 48t-36.5 47t-56.5 35.5t-76 14.5q-54 0 -96.5 -19t-66.5 -48t-36 -59.5t-12 -57.5z" />
<glyph unicode="'" horiz-adv-x="256" d="M59 1276q0 29 20.5 50.5t49.5 21.5q27 0 47.5 -21.5t20.5 -50.5l-47 -207h-44z" />
<glyph unicode="(" horiz-adv-x="333" d="M86 217v887q0 98 45.5 207t114.5 186l43 -29q-56 -73 -91.5 -173.5t-35.5 -190.5v-885q0 -88 35.5 -187.5t91.5 -170.5l-43 -29q-69 75 -114.5 182t-45.5 203z" />
<glyph unicode=")" horiz-adv-x="333" d="M45 -139q56 71 91.5 170.5t35.5 187.5v885q0 90 -35.5 190.5t-91.5 173.5l43 29q69 -77 114.5 -186t45.5 -207v-887q0 -96 -45.5 -203t-114.5 -182z" />
<glyph unicode="*" horiz-adv-x="802" d="M35 1040l22 66l312 -105l-2 330h69l-2 -330l311 107l21 -68l-313 -100l196 -264l-55 -39l-193 266l-192 -268l-55 41l194 264z" />
<glyph unicode="+" d="M57 631v71h295v295h74v-295h297v-71h-297v-299h-74v299h-295z" />
<glyph unicode="," horiz-adv-x="282" d="M74 53q0 29 19.5 49.5t47.5 20.5t49 -20.5t21 -49.5q0 -38 -19.5 -96.5t-64.5 -118.5l-12 2l22 144q-26 2 -44.5 21.5t-18.5 47.5z" />
<glyph unicode="-" d="M57 631v71h666v-71h-666z" />
<glyph unicode="." horiz-adv-x="282" d="M74 53q0 30 19 50t48 20t49.5 -20.5t20.5 -49.5t-20 -48t-50 -19q-29 0 -48 19t-19 48z" />
<glyph unicode="/" horiz-adv-x="618" d="M0 -57l547 1443h71l-544 -1443h-74z" />
<glyph unicode="0" horiz-adv-x="1056" d="M111 666q0 143 27 261.5t71.5 196.5t102.5 131.5t117.5 77t119.5 23.5q62 0 122.5 -23.5t119 -77t102.5 -131.5t71 -196.5t27 -261.5t-27 -261.5t-71 -196.5t-102.5 -132t-119 -77.5t-122.5 -23.5q-60 0 -119.5 23.5t-117.5 77.5t-102.5 132t-71.5 196.5t-27 261.5z M184 666q0 -128 22.5 -233.5t59 -175.5t85 -118.5t98.5 -70t100 -21.5q51 0 101.5 21.5t99 70t86 118.5t60 175.5t22.5 233.5q0 158 -34 281.5t-89.5 194.5t-118 106.5t-127.5 35.5q-50 0 -100 -21.5t-98.5 -69.5t-85 -118t-59 -175.5t-22.5 -233.5z" />
<glyph unicode="1" horiz-adv-x="540" d="M248 0v1331h74v-1331h-74z" />
<glyph unicode="2" horiz-adv-x="802" d="M111 141q-1 76 29.5 153t80.5 142t111 128.5t122 124t112 118.5t82.5 120.5t31.5 121.5q0 99 -81 167t-181 68q-70 0 -135 -35.5t-103 -101.5l-65 27q47 91 129 136.5t174 45.5q132 0 234 -87t102 -220q0 -71 -35.5 -144t-90.5 -136.5t-121 -128t-128 -130.5t-110 -132.5 t-69 -144.5t-3 -157h546v-76h-604q-28 70 -28 141z" />
<glyph unicode="3" horiz-adv-x="845" d="M113 96l47 54q118 -103 260 -103q127 0 216 86.5t89 228.5q0 55 -20.5 106.5t-58.5 93t-98 66.5t-132 25t-135 -39l-39 52q56 32 106 64.5t105 77.5t94.5 89t65.5 96.5t26 102.5q0 88 -55 139t-138 51q-56 0 -121.5 -31t-121.5 -86l-56 45q66 69 146 106.5t153 37.5 q116 0 191.5 -70t75.5 -192q0 -193 -287 -387q164 4 269.5 -101.5t105.5 -245.5q0 -118 -53.5 -207.5t-139 -134.5t-188.5 -45q-175 0 -307 121z" />
<glyph unicode="4" horiz-adv-x="995" d="M90 453q0 51 10 97t34.5 89.5t46.5 75.5t65 75t70 68t81 72q54 48 84 76t71.5 73t63.5 80.5t38 81t16 90.5h73q0 -67 -22.5 -129t-69.5 -121.5t-90.5 -102.5t-114.5 -104q-48 -42 -74.5 -66.5t-66 -64t-60 -68.5t-43 -70t-29.5 -77.5t-6 -81.5t15 -92h514v451 q51 46 74 82v-533h168v-75h-168v-279h-74v279h-565q-41 96 -41 174z" />
<glyph unicode="5" horiz-adv-x="872" d="M117 51l47 58q85 -58 209 -58q57 0 111 15.5t103.5 50t86 84t58.5 122.5t22 162q0 92 -27 164.5t-72 116t-100 66t-115 22.5q-131 0 -237 -90l-56 37v530h537v-74h-461v-395q101 66 217 66q75 0 143 -27t123.5 -79.5t89 -139.5t33.5 -197q0 -128 -39.5 -229 t-105.5 -160.5t-145 -90t-166 -30.5q-146 0 -256 76z" />
<glyph unicode="6" horiz-adv-x="1005" d="M90 637q0 151 33.5 276t87 205t123 135.5t138 79t134.5 23.5q74 0 146 -35l-33 -68q-60 29 -113 29t-108.5 -19t-112.5 -63.5t-102.5 -109t-77 -165.5t-37.5 -223q97 54 200 85.5t183 31.5q166 0 273.5 -111t107.5 -298q0 -91 -23.5 -166.5t-61.5 -124t-88 -82t-101 -48 t-103 -14.5q-63 0 -125 19.5t-124.5 68t-109.5 121.5t-76.5 190t-29.5 263zM164 623q1 -154 37.5 -269.5t95 -179t123.5 -93.5t135 -30q55 0 106.5 21t96 62t71.5 112.5t27 163.5q0 152 -85.5 243.5t-219.5 91.5q-76 0 -183 -34t-204 -88z" />
<glyph unicode="7" horiz-adv-x="761" d="M53 1257v74h678q0 -52 -7.5 -105.5t-16 -95t-29 -95t-31.5 -82.5t-39 -82t-36.5 -68.5t-39 -67.5t-32.5 -55q-101 -178 -155 -328.5t-62 -351.5h-74q8 209 66.5 376t160.5 341q42 73 60 104.5t53 100t51.5 113.5t33 106t19.5 116h-600z" />
<glyph unicode="8" horiz-adv-x="974" d="M90 342q0 240 307 408q-106 64 -163.5 131t-57.5 159q0 145 100.5 230.5t231.5 85.5q84 0 154.5 -33t116.5 -103.5t46 -166.5q0 -101 -63.5 -186.5t-169.5 -141.5q57 -32 96 -56.5t85 -61t73.5 -71.5t46 -82.5t18.5 -99.5q0 -93 -34.5 -167t-92.5 -119t-129.5 -69 t-150.5 -24t-152.5 24t-132 69t-94 116t-35.5 158zM164 342q0 -91 50 -160t126.5 -102t163.5 -33q86 0 160.5 33t124 104.5t49.5 169.5q0 46 -20 88t-49.5 74.5t-82 69t-97.5 61.5t-118 62q-55 -27 -104 -59.5t-97.5 -78t-77 -105t-28.5 -124.5zM250 1040q0 -46 20.5 -85.5 t64 -75t83.5 -61t106 -60.5q99 51 162.5 128.5t63.5 166.5q0 110 -70.5 170.5t-171.5 60.5t-179.5 -66.5t-78.5 -177.5z" />
<glyph unicode="9" horiz-adv-x="1005" d="M90 922q0 91 23.5 166t61.5 124t88 82t101 47.5t103 14.5q63 0 125 -19.5t124.5 -68t109.5 -121.5t76.5 -190t29.5 -263q0 -151 -33.5 -275.5t-87 -205t-123 -136t-138 -79t-134.5 -23.5q-74 0 -146 35l33 68q56 -27 113 -27q53 0 108.5 18.5t112.5 63t102.5 108.5 t77 165t37.5 223q-97 -54 -200 -85.5t-183 -31.5q-166 0 -273.5 111.5t-107.5 298.5zM164 922q0 -152 86.5 -244t220.5 -92q76 0 182.5 34t204.5 89q-1 124 -26 224t-64 164t-90.5 106.5t-104 60.5t-106.5 18q-55 0 -106.5 -21t-96.5 -62.5t-72.5 -113t-27.5 -163.5z" />
<glyph unicode=":" horiz-adv-x="282" d="M74 53q0 30 19 50t48 20t49.5 -20.5t20.5 -49.5t-20 -48t-50 -19q-29 0 -48 19t-19 48zM74 653q0 30 19 50t48 20t49.5 -20.5t20.5 -49.5t-20 -48t-50 -19q-29 0 -48 19t-19 48z" />
<glyph unicode=";" horiz-adv-x="282" d="M74 53q0 29 19.5 49.5t47.5 20.5t49 -20.5t21 -49.5q0 -38 -19.5 -96.5t-64.5 -118.5l-12 2l22 144q-26 2 -44.5 21.5t-18.5 47.5zM74 653q0 30 19 50t48 20t49.5 -20.5t20.5 -49.5t-20 -48t-50 -19q-29 0 -48 19t-19 48z" />
<glyph unicode="&#x3c;" horiz-adv-x="567" d="M57 600v59l392 369l49 -57l-363 -342l363 -338l-49 -58z" />
<glyph unicode="=" d="M57 473v72h666v-72h-666zM57 788v72h666v-72h-666z" />
<glyph unicode="&#x3e;" horiz-adv-x="567" d="M70 291l360 338l-360 342l49 57l391 -369v-59l-391 -367z" />
<glyph unicode="?" horiz-adv-x="903" d="M115 1112q10 60 42 106.5t70 71.5t84 41t77.5 20.5t57.5 4.5q50 0 96.5 -8.5t94.5 -32t83 -59t57 -95t22 -135.5q0 -52 -22 -108t-55 -103.5t-71.5 -106t-71 -114t-53.5 -129.5t-20 -150h-76q-4 95 25 185.5t73 158.5t89 129t76.5 123t31.5 115q0 58 -17.5 104t-45 74 t-65.5 46t-74.5 25t-76.5 7q-25 0 -58 -6.5t-75.5 -22.5t-76.5 -53t-46 -88h-75zM401 53q0 29 19.5 49.5t48.5 20.5t49.5 -20.5t20.5 -49.5t-20 -48t-50 -19q-29 0 -48.5 19t-19.5 48z" />
<glyph unicode="@" horiz-adv-x="1308" d="M57 659q0 165 79 304.5t215.5 220t297.5 80.5q165 0 304 -80.5t219.5 -220t80.5 -304.5q0 -161 -80.5 -297t-219.5 -215t-304 -79q-161 0 -297.5 79t-215.5 215t-79 297zM119 659q0 -144 71 -266t193 -193t266 -71q148 0 273 71t197.5 193t72.5 266q0 148 -72.5 273 t-197.5 197.5t-273 72.5q-144 0 -266 -72.5t-193 -197.5t-71 -273zM397 340v451q0 100 73.5 170.5t178.5 70.5t177.5 -70.5t72.5 -170.5v-451h-61v190h-379v-190h-62zM459 588h379v203q0 74 -55 128t-134 54t-134.5 -54t-55.5 -128v-203z" />
<glyph unicode="A" horiz-adv-x="933" d="M121 0v1069q0 51 19 99t58 91.5t109.5 70t161.5 26.5q90 0 159.5 -26.5t108.5 -70t58.5 -92t19.5 -98.5v-1069h-76l2 657h-546v-657h-74zM195 727h546v342q0 29 -8.5 58t-29 57.5t-51 50.5t-78 35.5t-105.5 13.5q-72 0 -127.5 -20.5t-86 -53t-45.5 -68.5t-15 -73v-342z " />
<glyph unicode="B" horiz-adv-x="907" d="M121 0v1331h342q118 0 201.5 -91t83.5 -222q0 -68 -34 -142.5t-102 -140.5q100 -59 157.5 -150t57.5 -202q0 -89 -26 -159t-66 -111t-93 -67.5t-101.5 -36t-98.5 -9.5h-321zM195 72h247q39 0 78 8t82 30t75.5 55.5t53.5 89.5t21 128q0 94 -54 175t-143 130 q-141 -103 -360 -145v-471zM195 616q129 26 226.5 74.5t150 105.5t77.5 112.5t25 109.5q0 100 -64 171t-153 71h-262v-644z" />
<glyph unicode="C" horiz-adv-x="909" d="M84 666q0 128 35 250.5t99 221t163 158.5t217 60q120 0 256 -88l-43 -62q-112 76 -213 76q-82 0 -153.5 -35t-123 -95t-89 -139t-56 -167.5t-18.5 -179.5q0 -114 30 -223.5t84 -197.5t139 -142t187 -54q96 0 213 74l41 -62q-135 -86 -254 -86q-95 0 -178.5 39.5 t-144 106.5t-104 155.5t-65.5 188t-22 201.5z" />
<glyph unicode="D" horiz-adv-x="944" d="M121 0v1331h127q99 0 182.5 -19.5t142.5 -49t106.5 -76t77 -90t51 -101.5t31.5 -99.5t16 -95t6.5 -77.5t0.5 -57q0 -45 -1.5 -78.5t-13.5 -108t-33 -130.5t-67 -125.5t-108.5 -115t-163.5 -77t-227 -31.5h-127zM195 72h63q85 0 157 17t123 43.5t92 67.5t66.5 80t44 90 t27.5 88.5t14 85.5t5.5 70t0.5 52t-0.5 52t-5.5 70t-14 85.5t-27.5 88.5t-44 90t-66.5 80t-92 67.5t-123 43.5t-157 17h-63v-1188z" />
<glyph unicode="E" horiz-adv-x="792" d="M121 0v1331h551v-74h-477v-530h342v-70h-342v-581h532v-76h-606z" />
<glyph unicode="F" horiz-adv-x="700" d="M121 0v1331h551v-74h-477v-530h346v-70h-346v-657h-74z" />
<glyph unicode="G" horiz-adv-x="1044" d="M84 666q0 102 21.5 201.5t65 187.5t104 155.5t143.5 106.5t178 39q120 0 256 -88l-41 -62q-115 76 -215 76q-102 0 -186.5 -53.5t-138.5 -141.5t-83.5 -197.5t-29.5 -223.5t29.5 -223.5t83.5 -197.5t138.5 -142t186.5 -54q59 0 127.5 27t126.5 74v464h74v-493 q-68 -68 -158.5 -107t-169.5 -39q-95 0 -178 39.5t-143.5 106.5t-104 155.5t-65 188t-21.5 201.5z" />
<glyph unicode="H" horiz-adv-x="933" d="M121 0v1331h74v-604h546v604h74v-1331h-74v657h-546v-657h-74z" />
<glyph unicode="I" horiz-adv-x="315" d="M121 0v1331h74v-1331h-74z" />
<glyph unicode="J" horiz-adv-x="606" d="M23 51l43 58q84 -62 165 -62q86 0 138.5 67.5t52.5 159.5v1057h76v-1055q0 -120 -74.5 -210.5t-192.5 -90.5q-103 0 -208 76z" />
<glyph unicode="K" horiz-adv-x="862" d="M121 0v1331h74v-653q109 38 199.5 100.5t148.5 132t98 147t57 145.5t17 128h76q0 -63 -18 -136t-55.5 -153t-103.5 -160t-153 -143q299 -333 356 -739h-76q-58 396 -338 698q-99 -60 -208 -94v-604h-74z" />
<glyph unicode="L" horiz-adv-x="755" d="M121 0v1331h74v-1255h530v-76h-604z" />
<glyph unicode="M" horiz-adv-x="1300" d="M121 0v1063q0 51 18.5 102t52.5 94.5t90 71t124 27.5q91 0 155.5 -50t91.5 -122q29 72 94.5 122t155.5 50q68 0 124 -27.5t90 -71t52.5 -94.5t18.5 -102v-1063h-74v1063q0 52 -23 101.5t-72.5 85.5t-115.5 36q-98 0 -155.5 -70t-57.5 -153v-1063h-72v1063q0 83 -56.5 153 t-155.5 70q-66 0 -115.5 -36t-72.5 -85.5t-23 -101.5v-1063h-74z" />
<glyph unicode="N" horiz-adv-x="929" d="M121 0v1331h57l15 -108q166 137 305 137q79 0 142.5 -27t101.5 -70t58.5 -93t20.5 -101v-1069h-76v1069q0 83 -65 150t-182 67q-135 0 -303 -147v-1139h-74z" />
<glyph unicode="O" horiz-adv-x="946" d="M121 295v741q0 56 22.5 111.5t64.5 102.5t112 76.5t155 29.5t154.5 -29.5t111.5 -76.5t64 -102.5t22 -111.5v-741q0 -56 -22 -111.5t-64 -102.5t-111.5 -76.5t-154.5 -29.5t-155 29.5t-112 76.5t-64.5 102.5t-22.5 111.5zM195 291q0 -44 18 -86t51 -78t88 -58t123 -22 q130 0 203.5 75t73.5 169v749q0 94 -73.5 169t-203.5 75q-68 0 -123 -22t-88 -58t-51 -78t-18 -86v-749z" />
<glyph unicode="P" horiz-adv-x="815" d="M121 0v1331h295q21 0 45 -2.5t61.5 -12t71.5 -25.5t69.5 -46t61.5 -69t42.5 -99.5t16.5 -134.5q0 -382 -589 -448v-494h-74zM195 567q114 11 205 37.5t162.5 70.5t110 112t38.5 155q0 82 -25.5 143.5t-60 93.5t-80 51.5t-75 24.5t-54.5 5h-221v-693z" />
<glyph unicode="Q" horiz-adv-x="948" d="M121 295v741q0 56 22.5 111.5t64.5 102.5t112 76.5t155 29.5t154.5 -29.5t111.5 -76.5t64 -102.5t22 -111.5v-741q0 -71 -34 -135l129 -99v-61h-62l-104 98q-104 -123 -281 -123q-85 0 -155 29.5t-112 76.5t-64.5 102.5t-22.5 111.5zM195 291q0 -44 18 -86t51 -78t88 -58 t123 -22q153 0 232 107l-123 125l18 18l127 -96q23 48 23 90v749q0 94 -73.5 169t-203.5 75q-68 0 -123 -22t-88 -58t-51 -78t-18 -86v-749z" />
<glyph unicode="R" horiz-adv-x="872" d="M121 0v1331h295q21 0 45 -2.5t61.5 -12t71.5 -25.5t69.5 -46t61.5 -69t42.5 -99.5t16.5 -134.5q0 -230 -215 -346q103 -149 160.5 -289t87.5 -307h-76q-30 160 -85 293t-152 272q-124 -52 -309 -71v-494h-74zM195 567q114 11 205 37.5t162.5 70.5t110 112t38.5 155 q0 82 -25.5 143.5t-60 93.5t-80 51.5t-75 24.5t-54.5 5h-221v-693z" />
<glyph unicode="S" horiz-adv-x="796" d="M55 143l54 54q123 -150 284 -150q70 0 131 29.5t102.5 95t41.5 156.5q0 58 -21 111.5t-65.5 106.5t-80 87t-98.5 88q-49 44 -74 68t-64 66t-58 73.5t-34 74t-15 84.5q0 124 82.5 196.5t195.5 72.5q117 0 221 -86l-51 -53q-79 65 -170 65q-83 0 -144 -53.5t-61 -141.5 q0 -39 17.5 -79t54.5 -82.5t68.5 -73t83.5 -76.5q54 -47 85 -75.5t74.5 -77t67 -89t41.5 -95.5t18 -111q0 -87 -30 -157t-80 -112t-111 -64t-127 -22q-196 0 -338 170z" />
<glyph unicode="T" horiz-adv-x="768" d="M55 1257v74h658v-74h-291v-1257h-76v1257h-291z" />
<glyph unicode="U" horiz-adv-x="940" d="M121 262v1069h74v-1069q0 -82 66 -148.5t183 -66.5q134 0 301 146v1138h76v-1331h-57l-16 109q-167 -138 -304 -138q-79 0 -142.5 27t-101.5 70t-58.5 93t-20.5 101z" />
<glyph unicode="V" horiz-adv-x="919" d="M84 1331h76v-67v-90q2 -70 8 -163t17 -168.5t31.5 -163t49 -158t72 -143t97.5 -128t127.5 -102.5t160.5 -76v1259h76v-1356q-143 30 -257 98.5t-188 150.5t-127 200t-80.5 220t-42.5 239.5t-18 229.5q-2 69 -2 157v61z" />
<glyph unicode="W" horiz-adv-x="1306" d="M121 268v1063h74v-1063q0 -52 23 -101.5t72.5 -85.5t115.5 -36q99 0 155.5 70t56.5 153v1063h72v-1063q0 -83 57.5 -153t155.5 -70q66 0 115.5 36t72.5 85.5t23 101.5v1063h74v-1063q0 -51 -18.5 -102t-52.5 -94.5t-90 -71t-124 -27.5q-90 0 -155.5 50t-94.5 122 q-27 -72 -91.5 -122t-155.5 -50q-68 0 -124 27.5t-90 71t-52.5 94.5t-18.5 102z" />
<glyph unicode="X" horiz-adv-x="1019" d="M84 0q0 73 11.5 141t29.5 122.5t49 110.5t59 96.5t72 90t75.5 81.5t80.5 79q-62 59 -100 99.5t-86.5 103t-76 119t-47 132t-20.5 156.5h74q1 -74 18.5 -143t43 -121t69.5 -110t80.5 -96.5t93.5 -94.5q72 69 117 119.5t93 122t72 151.5t25 172h74q-1 -81 -21 -156.5 t-47.5 -131.5t-76 -119t-86.5 -103t-99 -100q50 -48 80.5 -79t75 -81t72 -90t59 -97t49 -111t29.5 -122t12 -141h-76q0 92 -20.5 176.5t-50.5 148t-81 131t-93.5 112.5t-106.5 106q-64 -62 -105.5 -106t-93 -112.5t-81.5 -131.5t-51 -147.5t-21 -176.5h-74z" />
<glyph unicode="Y" horiz-adv-x="987" d="M68 1324v7h73v-4q0 -66 1.5 -108t12.5 -130.5t31.5 -152t63.5 -149t103 -147.5t156 -121.5t216 -94.5q54 141 85.5 335t38.5 321.5t7 250.5h76q0 -67 -2.5 -132t-10 -168t-20.5 -195.5t-37 -202t-55.5 -200t-80 -178t-107.5 -147.5t-140 -96.5t-176 -36.5q-72 0 -158 25 l25 68q70 -21 133 -21q249 0 395 309q-130 39 -233 103.5t-168 131.5t-111.5 158t-68.5 159t-34 162t-13.5 139t-1.5 115z" />
<glyph unicode="Z" horiz-adv-x="794" d="M84 0q-1 15 -1 30q1 165 61 300q66 147 198 309q4 5 43.5 53.5t49 61t43.5 60.5t46 72.5t36 74.5t34 90t19.5 94.5t11.5 111.5h-473v74h546v-29q0 -62 -6 -120q-8 -71 -20.5 -125.5t-39 -113.5t-46 -96.5t-58.5 -91t-61.5 -81l-67.5 -82.5q-54 -68 -90 -119.5 t-71.5 -116.5t-54.5 -134.5t-23 -145.5h553v-76h-629z" />
<glyph unicode="[" horiz-adv-x="290" d="M94 -164v1659h197v-65h-123v-1528h123v-66h-197z" />
<glyph unicode="\" horiz-adv-x="618" d="M0 1386h72l546 -1443h-73z" />
<glyph unicode="]" horiz-adv-x="290" d="M0 -98h121v1528h-121v65h197v-1659h-197v66z" />
<glyph unicode="^" horiz-adv-x="698" d="M47 1047l270 309h64l270 -309l-55 -50l-248 279l-244 -279z" />
<glyph unicode="_" horiz-adv-x="665" d="M0 -160h666v-71h-666v71z" />
<glyph unicode="`" horiz-adv-x="608" d="M104 1178l23 65l369 -151l-17 -54z" />
<glyph unicode="a" horiz-adv-x="878" d="M84 276q0 122 86.5 196.5t212.5 74.5h301v151q0 91 -61.5 135t-161.5 44q-140 0 -289 -66l-33 63q158 74 322 74q135 0 217 -61.5t82 -190.5v-671q-141 -41 -297 -41q-61 0 -114.5 8.5t-103 29.5t-84.5 53.5t-56 84t-21 116.5zM158 276q0 -61 24.5 -105.5t68.5 -69 t95.5 -35.5t114.5 -11q105 0 223 27v393h-301q-95 0 -160 -53.5t-65 -145.5z" />
<glyph unicode="b" horiz-adv-x="921" d="M121 23v1308h74v-530q67 67 147 107t156 40q67 0 127.5 -27t109 -79t77 -136.5t28.5 -189.5q0 -248 -137.5 -389t-354.5 -141q-105 0 -227 37zM195 80q84 -19 153 -19q183 0 300.5 121t117.5 334q0 171 -78.5 263.5t-189.5 92.5q-79 0 -160.5 -48t-142.5 -124v-620z" />
<glyph unicode="c" horiz-adv-x="782" d="M84 467q0 214 111.5 346.5t285.5 132.5q64 0 130.5 -25t115.5 -63l-43 -57q-42 32 -96.5 52.5t-106.5 20.5q-142 0 -232.5 -113t-90.5 -294t90.5 -294.5t232.5 -113.5q107 0 203 74l43 -59q-50 -37 -116.5 -61.5t-129.5 -24.5q-174 0 -285.5 132.5t-111.5 346.5z" />
<glyph unicode="d" horiz-adv-x="931" d="M84 494q0 201 107 326.5t294 125.5q98 0 250 -47v432h76v-1306q-132 -37 -262 -37q-140 0 -247 67t-162.5 181.5t-55.5 257.5zM158 494q0 -185 105.5 -309t285.5 -124q80 0 186 23v739q-155 51 -250 51q-152 0 -239.5 -106t-87.5 -274z" />
<glyph unicode="e" horiz-adv-x="909" d="M84 467q0 216 103 347.5t274 131.5q169 0 266.5 -131t97.5 -348v-61h-663q14 -170 106.5 -258.5t229.5 -88.5q116 0 250 64l34 -64q-139 -71 -284 -71q-86 0 -160 29.5t-131 87t-90 150.5t-33 212zM160 477h590v9q0 170 -76 278q-78 110 -213 110t-217.5 -108t-83.5 -289 z" />
<glyph unicode="f" horiz-adv-x="468" d="M68 860v72h102v106q0 119 74.5 206t191.5 87v-71q-85 0 -137.5 -64t-52.5 -154v-110h190v-72h-190v-860h-76v860h-102z" />
<glyph unicode="g" horiz-adv-x="921" d="M84 467q0 215 91.5 346t250.5 131q75 0 155 -40.5t148 -108.5l14 137h60v-869q0 -118 -33.5 -211t-92 -150.5t-133 -87.5t-159.5 -30q-149 0 -283 70l33 63q126 -63 250 -63q76 0 139.5 27.5t112 83.5t73.5 151q19 73 19 164q0 26 -2 53q-66 -66 -146.5 -105.5 t-154.5 -39.5q-159 0 -250.5 131.5t-91.5 347.5zM158 467q0 -180 71 -293t197 -113q77 0 159.5 48.5t141.5 121.5v467q-61 75 -142.5 123.5t-158.5 48.5q-126 0 -197 -112.5t-71 -290.5z" />
<glyph unicode="h" horiz-adv-x="935" d="M121 0v1331h74v-500q171 115 305 115q132 0 224.5 -94.5t92.5 -218.5v-633h-74v637q0 94 -70.5 165.5t-172.5 71.5q-72 0 -155 -35.5t-150 -86.5v-752h-74z" />
<glyph unicode="i" horiz-adv-x="321" d="M96 1266q0 28 19 46.5t47 18.5q26 0 44.5 -18.5t18.5 -46.5t-18.5 -47t-44.5 -19q-28 0 -47 19t-19 47zM125 0v932h74v-932h-74z" />
<glyph unicode="j" horiz-adv-x="323" d="M-51 -338q81 0 129.5 62.5t48.5 152.5v1055h74v-1053q0 -118 -69.5 -203.5t-182.5 -85.5v72zM98 1266q0 28 19 46.5t47 18.5q25 0 44 -19t19 -46t-19 -46.5t-44 -19.5q-28 0 -47 19t-19 47z" />
<glyph unicode="k" horiz-adv-x="782" d="M121 0v1331h74v-909q96 46 171.5 112t121 137.5t71.5 135.5t37 125h74q-16 -103 -72.5 -218.5t-159.5 -211.5q81 -57 142.5 -126.5t96 -138.5t52.5 -126t25 -111h-74q-7 51 -24 103.5t-49 115t-90 125t-134 113.5q-84 -68 -188 -113v-344h-74z" />
<glyph unicode="l" horiz-adv-x="315" d="M121 35v1296h74v-1331h-54z" />
<glyph unicode="m" horiz-adv-x="1310" d="M121 0v653q0 53 17.5 104t51 94.5t90.5 70t128 26.5q92 0 156 -48.5t91 -119.5q27 71 92 119.5t158 48.5t160.5 -46t97 -111.5t29.5 -137.5v-653h-76v653q0 87 -54.5 155.5t-156.5 68.5q-101 0 -157 -69t-56 -155v-653h-71v653q0 87 -55.5 155.5t-157.5 68.5 t-157.5 -68.5t-55.5 -155.5v-653h-74z" />
<glyph unicode="n" horiz-adv-x="935" d="M121 0v932h57l15 -103q70 49 152.5 83t154.5 34q132 0 224.5 -94.5t92.5 -218.5v-633h-74v637q0 94 -70.5 165.5t-172.5 71.5q-72 0 -155 -35.5t-150 -86.5v-752h-74z" />
<glyph unicode="o" horiz-adv-x="964" d="M84 467q0 214 111 346.5t284 132.5q178 0 290 -132.5t112 -346.5q0 -215 -112 -347t-290 -132q-173 0 -284 132t-111 347zM158 467q0 -182 90 -295t231 -113q143 0 234.5 113t91.5 295q0 181 -91.5 294t-234.5 113q-140 0 -230.5 -113.5t-90.5 -293.5z" />
<glyph unicode="p" horiz-adv-x="921" d="M121 -410v1342h57l17 -133q64 68 145.5 108.5t157.5 40.5q67 0 127.5 -27t109 -79t77 -136.5t28.5 -189.5q0 -248 -137.5 -389t-354.5 -141q-61 0 -153 18v-414h-74zM195 80q84 -19 153 -19q183 0 300.5 121t117.5 334q0 171 -78.5 263.5t-189.5 92.5q-79 0 -160.5 -48 t-142.5 -124v-620z" />
<glyph unicode="q" horiz-adv-x="923" d="M82 416q0 249 137.5 389.5t353.5 140.5q108 0 230 -37v-1319h-76v543q-64 -66 -145 -105.5t-156 -39.5q-68 0 -128.5 26.5t-109.5 77.5t-77.5 135t-28.5 189zM158 416q0 -171 78 -263t190 -92q77 0 159.5 48.5t141.5 123.5v617q-83 22 -154 22q-183 0 -299 -121 t-116 -335z" />
<glyph unicode="r" horiz-adv-x="552" d="M121 0v932h57l15 -111q76 53 165.5 89t171.5 36v-72q-83 0 -174 -38t-161 -95v-741h-74z" />
<glyph unicode="s" horiz-adv-x="669" d="M84 109l66 34q63 -84 169 -84q80 0 136.5 48.5t56.5 117.5q0 43 -22 82t-57.5 69.5t-78 59.5t-85.5 59.5t-78.5 63.5t-57.5 77.5t-22 94.5q0 104 68.5 159.5t158.5 55.5q106 0 180 -67l-53 -50q-55 45 -127 45q-60 0 -107 -38t-47 -105q0 -37 22.5 -72.5t58 -65 t78.5 -59.5t86 -62.5t78.5 -67.5t58 -81.5t22.5 -97.5q0 -102 -79 -169.5t-190 -67.5q-72 0 -134 31t-101 90z" />
<glyph unicode="t" horiz-adv-x="499" d="M61 860v72h101v223h76v-223h190v-72h-190v-549q0 -93 54 -166t136 -73v-72q-113 0 -189.5 96t-76.5 219v545h-101z" />
<glyph unicode="u" horiz-adv-x="937" d="M121 311v621h74v-625q0 -99 71 -173.5t176 -74.5q71 0 153.5 34.5t149.5 84.5v754h74v-932h-57l-14 102q-69 -48 -151.5 -81t-154.5 -33q-136 0 -228.5 97t-92.5 226z" />
<glyph unicode="v" horiz-adv-x="817" d="M31 932h73q0 -152 41.5 -291t113 -245t164 -184.5t198.5 -123.5v844h75v-944q-128 33 -246 115t-212 200.5t-150.5 282.5t-56.5 346z" />
<glyph unicode="w" horiz-adv-x="1308" d="M121 283v649h74v-649q0 -88 54.5 -156t158.5 -68q102 0 156 68t54 156v649h72v-649q0 -87 56 -155.5t159 -68.5q102 0 156.5 68t54.5 156v649h74v-649q0 -54 -17.5 -105t-51 -94.5t-89.5 -69.5t-127 -26q-94 0 -159.5 48t-90.5 120q-27 -72 -91 -120t-156 -48 q-72 0 -128.5 26t-90 69.5t-51 94.5t-17.5 105z" />
<glyph unicode="x" horiz-adv-x="872" d="M84 0q0 67 24 131.5t69.5 124.5t92 107t109.5 102q-63 51 -108 95.5t-91.5 104t-71 127t-24.5 140.5h74q0 -51 17 -102t41.5 -90t65.5 -84t73 -74t81 -70q49 40 82 69.5t74 74t66 84t42 90.5t17 102h76q0 -59 -18 -116t-44.5 -102t-69 -93t-79 -81.5t-86.5 -74.5 q64 -56 109 -102t92 -106.5t71.5 -125.5t24.5 -131h-76q0 46 -17 93.5t-42 86.5t-66 84.5t-74 77t-82 74.5q-61 -54 -102 -95t-86 -96.5t-67.5 -112t-22.5 -112.5h-74z" />
<glyph unicode="y" horiz-adv-x="899" d="M98 -346l33 63q126 -63 252 -63q76 0 139 27.5t111 84t73 150.5q19 74 19 165q0 26 -2 54q-67 -67 -148 -107t-153 -40q-136 0 -229 97t-93 226v621h74v-625q0 -99 71.5 -173.5t176.5 -74.5q75 0 157.5 44t143.5 114v715h76v-869q0 -118 -33.5 -211t-91.5 -150.5 t-132 -87.5t-159 -30q-148 0 -285 70z" />
<glyph unicode="z" horiz-adv-x="768" d="M84 0q2 87 28.5 165.5t68.5 139t93 116t103 107t96 101t76 109t39 120.5h-447v74h533q1 -14 1 -27q0 -59 -18 -115q-22 -68 -61.5 -124.5t-88.5 -110t-102.5 -107.5t-100 -108.5t-83 -123t-49.5 -140.5h514v-76h-602z" />
<glyph unicode="{" horiz-adv-x="419" d="M78 657q56 97 74 208.5t18 258.5q0 112 52.5 234.5t131.5 210.5l43 -35q-69 -91 -108 -208.5t-39 -233.5q0 -113 -26.5 -228t-78.5 -207q105 -182 105 -446q0 -253 147 -447l-43 -34q-79 86 -131.5 208.5t-52.5 233.5q0 158 -17 270t-75 215z" />
<glyph unicode="|" horiz-adv-x="448" d="M186 -186v1704h76v-1704h-76z" />
<glyph unicode="}" horiz-adv-x="419" d="M25 -236q147 198 147 447q0 269 102 446q-102 180 -102 435q0 116 -39 233.5t-108 208.5l41 35q79 -88 131.5 -210.5t52.5 -234.5q0 -147 18 -258.5t74 -208.5q-58 -103 -75 -215t-17 -270q0 -111 -52.5 -233.5t-131.5 -208.5z" />
<glyph unicode="~" horiz-adv-x="735" d="M74 649q62 107 159 107q36 0 118.5 -34t125.5 -34q73 0 117 68l68 -29q-59 -115 -179 -115q-50 0 -133 34t-110 34q-57 0 -99 -62z" />
<glyph unicode="&#xa1;" horiz-adv-x="540" d="M201 811q0 29 20 48.5t49 19.5t48.5 -19.5t19.5 -48.5t-19.5 -49.5t-48.5 -20.5t-49 20.5t-20 49.5zM231 -467v1016h76v-1016h-76z" />
<glyph unicode="&#xa2;" horiz-adv-x="806" d="M57 666q0 204 98.5 327t252.5 144v94h71v-88q143 -3 277 -96l-41 -60q-124 86 -250 86q-141 0 -237.5 -108t-96.5 -299t96.5 -299.5t237.5 -108.5q126 0 250 86l41 -59q-135 -94 -277 -97v-88h-71v93q-154 21 -252.5 144.5t-98.5 328.5z" />
<glyph unicode="&#xa3;" horiz-adv-x="710" d="M0 0v76h94v928q0 132 82 229.5t215 97.5q126 0 260 -108l-45 -56q-113 93 -215 93q-100 0 -161.5 -75.5t-61.5 -178.5v-322h432v-70h-432v-538h487v-76h-655z" />
<glyph unicode="&#xa5;" horiz-adv-x="741" d="M57 879v452h74v-452q0 -31 8 -63.5t26 -65.5t45 -58.5t68.5 -42t92.5 -16.5q63 0 111.5 24t75 62.5t39.5 79t13 80.5v452h74v-452q0 -39 -9 -78.5t-30 -80t-52 -72.5t-79 -55t-106 -28v-88h184v-71h-184v-168h184v-72h-184v-166h-74v166h-187v72h187v168h-187v71h187v88 q-72 6 -128 38.5t-87 79.5t-46.5 97t-15.5 99z" />
<glyph unicode="&#xa6;" horiz-adv-x="448" d="M186 -186v772h76v-772h-76zM186 745v773h76v-773h-76z" />
<glyph unicode="&#xa7;" horiz-adv-x="698" d="M100 -115l58 37q63 -78 170 -78q77 0 131.5 49t54.5 117q0 57 -41.5 106t-100 86.5t-117.5 76.5t-100.5 95t-41.5 124q0 95 68 145t155 45q-13 10 -45 32.5t-48 35.5t-42.5 35t-41 40.5t-30 42.5t-22.5 50t-7 55q0 98 75.5 164.5t184.5 66.5q66 0 124.5 -27.5t97.5 -80.5 l-58 -37q-63 78 -164 78q-82 0 -137 -48.5t-55 -117.5q0 -57 41.5 -106t100 -86.5t117.5 -76.5t100.5 -95t41.5 -124q0 -95 -68 -147t-155 -45q14 -11 51.5 -38.5t56 -41.5t47.5 -41.5t43.5 -49.5t26 -53.5t11.5 -64.5q0 -98 -75 -164.5t-185 -66.5q-66 0 -124.5 27.5 t-97.5 80.5zM182 494q0 -64 50.5 -103t119.5 -39q58 0 103 37.5t45 104.5q0 63 -51.5 102t-118.5 39q-58 0 -103 -37t-45 -104z" />
<glyph unicode="&#xa8;" horiz-adv-x="677" d="M145 1111.5q-2 18.5 9 31.5q12 14 29.5 16t31.5 -10q12 -12 14 -30t-10 -32q-11 -14 -28 -15t-31 11q-13 10 -15 28.5zM448 1111.5q-2 18.5 9 31.5q12 14 29.5 16t31.5 -10t15 -30t-11 -32q-11 -14 -28 -15t-31 11q-13 10 -15 28.5z" />
<glyph unicode="&#xa9;" horiz-adv-x="1308" d="M57 659q0 165 79 304.5t215.5 220t297.5 80.5q165 0 304 -80.5t219.5 -220t80.5 -304.5q0 -161 -80.5 -297t-219.5 -215t-304 -79q-161 0 -297.5 79t-215.5 215t-79 297zM119 659q0 -144 71 -266t193 -193t266 -71q148 0 273 71t197.5 193t72.5 266q0 148 -72.5 273 t-197.5 197.5t-273 72.5q-144 0 -266 -72.5t-193 -197.5t-71 -273zM375 659q0 148 76 244t194 96q95 0 207 -69l-33 -51q-95 59 -174 59q-91 0 -150 -79t-59 -200q0 -120 59 -198t150 -78q77 0 172 59l35 -51q-107 -69 -207 -69q-118 0 -194 95t-76 242z" />
<glyph unicode="&#xaa;" horiz-adv-x="675" d="M74 831q0 96 67.5 153.5t165.5 57.5h238v119q0 71 -48.5 105t-127.5 34q-119 0 -226 -49l-26 49q129 56 252 56q106 0 169.5 -47.5t63.5 -149.5v-524q-112 -33 -231 -33q-48 0 -90 7t-81 23.5t-66 42t-43.5 65.5t-16.5 91zM131 831q0 -64 35 -104.5t85.5 -55t117.5 -14.5 q89 0 176 19v309h-238q-74 0 -125 -41t-51 -113z" />
<glyph unicode="&#xab;" horiz-adv-x="978" d="M57 528v62l310 299l47 -58l-277 -272l277 -272l-47 -58zM469 528v62l309 299l47 -58l-276 -272l276 -272l-47 -58z" />
<glyph unicode="&#xac;" d="M57 631v71h666v-368h-72v297h-594z" />
<glyph unicode="&#xad;" d="M57 631v71h666v-71h-666z" />
<glyph unicode="&#xae;" horiz-adv-x="1308" d="M57 659q0 165 79 304.5t215.5 220t297.5 80.5q165 0 304 -80.5t219.5 -220t80.5 -304.5q0 -161 -80.5 -297t-219.5 -215t-304 -79q-161 0 -297.5 79t-215.5 215t-79 297zM119 659q0 -144 71 -266t193 -193t266 -71q148 0 273 71t197.5 193t72.5 266q0 148 -72.5 273 t-197.5 197.5t-273 72.5q-144 0 -266 -72.5t-193 -197.5t-71 -273zM410 334v659h297q100 0 171.5 -70.5t71.5 -170.5q0 -87 -55 -154t-139 -82l164 -182h-76l-160 176h-213v-176h-61zM471 571h236q74 0 128 54t54 127t-54 126.5t-128 53.5h-236v-361z" />
<glyph unicode="&#xaf;" horiz-adv-x="681" d="M125 1057v63h434v-63h-434z" />
<glyph unicode="&#xb0;" horiz-adv-x="716" d="M57 1098q0 125 88 214t213 89q126 0 215 -89t89 -214q0 -127 -89 -216t-215 -89t-213.5 88.5t-87.5 216.5zM119 1098q0 -101 69.5 -171.5t169.5 -70.5t171 70.5t71 171.5q0 98 -71 169.5t-171 71.5q-99 0 -169 -71t-70 -170z" />
<glyph unicode="&#xb1;" d="M57 0v72h666v-72h-666zM57 631v71h295v295h74v-295h297v-71h-297v-299h-74v299h-295z" />
<glyph unicode="&#xb4;" horiz-adv-x="608" d="M113 1092l370 151l21 -65l-375 -140z" />
<glyph unicode="&#xb6;" horiz-adv-x="968" d="M94 741q0 79 18 143t45 105t66 71.5t74 46t76 25t65 11.5t47 2h213v-1145h-75v340h-138q-24 0 -47.5 2t-64.5 11t-76 24t-74 45.5t-66 71.5t-45 104.5t-18 142.5zM801 0v1145h73v-1145h-73z" />
<glyph unicode="&#xb7;" horiz-adv-x="282" d="M74 653q0 30 19 50t48 20t49.5 -20.5t20.5 -49.5t-20 -48t-50 -19q-29 0 -48 19t-19 48z" />
<glyph unicode="&#xb8;" horiz-adv-x="534" d="M127 -326l29 54q56 -27 88 -27q30 0 48.5 16.5t18.5 40.5q0 35 -42 57.5t-89 26.5v158h62v-115q52 -10 91.5 -43.5t39.5 -83.5q0 -48 -36 -83t-93 -35q-56 0 -117 34z" />
<glyph unicode="&#xba;" horiz-adv-x="770" d="M74 981q0 166 86.5 270.5t222.5 104.5q138 0 225.5 -104t87.5 -271q0 -168 -87 -271.5t-226 -103.5q-136 0 -222.5 103.5t-86.5 271.5zM131 981q0 -142 71.5 -232t180.5 -90q114 0 186 90t72 232t-72 232t-186 90q-109 0 -180.5 -90t-71.5 -232z" />
<glyph unicode="&#xbb;" horiz-adv-x="978" d="M154 287l278 272l-278 272l49 58l309 -299v-62l-309 -299zM565 287l279 272l-279 272l49 58l310 -299v-62l-310 -299z" />
<glyph unicode="&#xbf;" horiz-adv-x="903" d="M106 -160q0 52 22 108t55 103.5t71.5 106t71 114t53.5 129.5t20 150h76q4 -95 -25 -185.5t-73 -158.5t-89 -129t-76.5 -123t-31.5 -115q0 -58 17.5 -104t45 -74t65.5 -46t74.5 -25t76.5 -7q25 0 58 6.5t75.5 22.5t76.5 53t46 88h76q-10 -60 -42 -106.5t-70 -71.5 t-84 -40.5t-78 -20t-58 -4.5q-51 0 -97 8.5t-94 31.5t-83 59t-57 95t-22 135zM367 813q0 29 20 48.5t49 19.5t48.5 -19.5t19.5 -48.5t-19.5 -49.5t-48.5 -20.5t-49 20.5t-20 49.5z" />
<glyph unicode="&#xc0;" horiz-adv-x="933" d="M121 0v1069q0 51 19 99t58 91.5t109.5 70t161.5 26.5q90 0 159.5 -26.5t108.5 -70t58.5 -92t19.5 -98.5v-1069h-76l2 657h-546v-657h-74zM195 727h546v342q0 29 -8.5 58t-29 57.5t-51 50.5t-78 35.5t-105.5 13.5q-72 0 -127.5 -20.5t-86 -53t-45.5 -68.5t-15 -73v-342z M268 1571l23 63l368 -149l-16 -53z" />
<glyph unicode="&#xc1;" horiz-adv-x="933" d="M121 0v1069q0 51 19 99t58 91.5t109.5 70t161.5 26.5q90 0 159.5 -26.5t108.5 -70t58.5 -92t19.5 -98.5v-1069h-76l2 657h-546v-657h-74zM195 727h546v342q0 29 -8.5 58t-29 57.5t-51 50.5t-78 35.5t-105.5 13.5q-72 0 -127.5 -20.5t-86 -53t-45.5 -68.5t-15 -73v-342z M270 1485l371 149l21 -63l-375 -139z" />
<glyph unicode="&#xc2;" horiz-adv-x="933" d="M121 0v1069q0 51 19 99t58 91.5t109.5 70t161.5 26.5q90 0 159.5 -26.5t108.5 -70t58.5 -92t19.5 -98.5v-1069h-76l2 657h-546v-657h-74zM195 727h546v342q0 29 -8.5 58t-29 57.5t-51 50.5t-78 35.5t-105.5 13.5q-72 0 -127.5 -20.5t-86 -53t-45.5 -68.5t-15 -73v-342z M231 1475l222 192h24l223 -192q-36 -48 -38 -50l-199 172l-195 -172z" />
<glyph unicode="&#xc3;" horiz-adv-x="933" d="M121 0v1069q0 51 19 99t58 91.5t109.5 70t161.5 26.5q90 0 159.5 -26.5t108.5 -70t58.5 -92t19.5 -98.5v-1069h-76l2 657h-546v-657h-74zM195 727h546v342q0 29 -8.5 58t-29 57.5t-51 50.5t-78 35.5t-105.5 13.5q-72 0 -127.5 -20.5t-86 -53t-45.5 -68.5t-15 -73v-342z M221 1505q54 92 135 92q31 0 98.5 -31.5t102.5 -31.5q64 0 102 65l54 -30q-55 -99 -156 -99q-44 0 -111.5 33t-89.5 33q-47 0 -82 -61z" />
<glyph unicode="&#xc4;" horiz-adv-x="933" d="M121 0v1069q0 51 19 99t58 91.5t109.5 70t161.5 26.5q90 0 159.5 -26.5t108.5 -70t58.5 -92t19.5 -98.5v-1069h-76l2 657h-546v-657h-74zM195 727h546v342q0 29 -8.5 58t-29 57.5t-51 50.5t-78 35.5t-105.5 13.5q-72 0 -127.5 -20.5t-86 -53t-45.5 -68.5t-15 -73v-342z M270 1505q-2 18 9 31q12 14 29.5 15t31.5 -11q12 -11 14 -29t-10 -32q-11 -12 -28 -14t-31 10q-13 12 -15 30zM573 1505q-2 18 9 31q12 14 29.5 15t31.5 -11q14 -11 15 -29t-11 -32q-11 -12 -28 -14t-31 10q-13 12 -15 30z" />
<glyph unicode="&#xc5;" horiz-adv-x="933" d="M121 0v1069q0 86 54 162.5t165 107.5q-76 60 -76 158q0 84 58.5 142.5t142.5 58.5q85 0 144 -58t59 -143q0 -98 -76 -158q111 -30 167 -107t56 -163v-1069h-76l2 657h-546v-657h-74zM195 727h546v342q0 29 -8.5 58t-29 57.5t-51 50.5t-78 35.5t-105.5 13.5 q-72 0 -127.5 -20.5t-86 -53t-45.5 -68.5t-15 -73v-342zM326 1497q0 -57 41 -98t98 -41q58 0 99.5 41t41.5 98t-41.5 98t-99.5 41q-57 0 -98 -41t-41 -98z" />
<glyph unicode="&#xc6;" horiz-adv-x="1427" d="M121 0v1069q0 51 19 99t58 91.5t109.5 70t161.5 26.5q188 0 272 -123v98h549v-74h-475v-530h340v-70h-340v-581h531v-76h-607l2 657h-546v-657h-74zM195 727h546v342q0 29 -8.5 58t-29 57.5t-51 50.5t-78 35.5t-105.5 13.5q-72 0 -127.5 -20.5t-86 -53t-45.5 -68.5 t-15 -73v-342z" />
<glyph unicode="&#xc7;" horiz-adv-x="909" d="M84 666q0 128 35 250.5t99 221t163 158.5t217 60q120 0 256 -88l-43 -62q-112 76 -213 76q-82 0 -153.5 -35t-123 -95t-89 -139t-56 -167.5t-18.5 -179.5q0 -114 30 -223.5t84 -197.5t139 -142t187 -54q96 0 213 74l41 -62q-127 -78 -238 -84v-92q52 -10 91.5 -43.5 t39.5 -83.5q0 -48 -36 -83t-93 -35q-55 0 -116 34l28 54q56 -27 88 -27q30 0 49 16.5t19 40.5q0 35 -42 57.5t-89 26.5v138q-108 11 -198.5 74t-148.5 159.5t-90 213.5t-32 239z" />
<glyph unicode="&#xc8;" horiz-adv-x="792" d="M121 0v1331h551v-74h-477v-530h342v-70h-342v-581h532v-76h-606zM199 1571l22 63l369 -149l-17 -53z" />
<glyph unicode="&#xc9;" horiz-adv-x="792" d="M121 0v1331h551v-74h-477v-530h342v-70h-342v-581h532v-76h-606zM199 1485l370 149l21 -63l-375 -139z" />
<glyph unicode="&#xca;" horiz-adv-x="792" d="M121 0v1331h551v-74h-477v-530h342v-70h-342v-581h532v-76h-606zM162 1475l221 192h25l223 -192q-37 -48 -39 -50l-199 172l-194 -172z" />
<glyph unicode="&#xcb;" horiz-adv-x="792" d="M121 0v1331h551v-74h-477v-530h342v-70h-342v-581h532v-76h-606zM200 1505q-2 18 9 31q12 14 29.5 15t31.5 -11q12 -11 14 -29t-10 -32q-11 -12 -28 -14t-31 10q-13 12 -15 30zM503 1505q-2 18 9 31q12 14 29.5 15t31.5 -11q14 -11 15.5 -29t-10.5 -32q-11 -12 -28.5 -14 t-31.5 10q-13 12 -15 30z" />
<glyph unicode="&#xcc;" horiz-adv-x="315" d="M-37 1571l23 63l368 -149l-16 -53zM121 0v1331h74v-1331h-74z" />
<glyph unicode="&#xcd;" horiz-adv-x="315" d="M-37 1485l371 149l20 -63l-374 -139zM121 0v1331h74v-1331h-74z" />
<glyph unicode="&#xce;" horiz-adv-x="315" d="M-74 1475l221 192h25l223 -192q-37 -48 -39 -50l-198 172l-195 -172zM121 0v1331h74v-1331h-74z" />
<glyph unicode="&#xcf;" horiz-adv-x="315" d="M-35.5 1505q-2.5 18 8.5 31q12 14 30 15t32 -11q12 -11 14 -29t-10 -32q-11 -12 -28 -14t-31 10q-13 12 -15.5 30zM121 0v1331h74v-1331h-74zM267.5 1505q-2.5 18 8.5 31q12 14 30 15t32 -11q14 -11 15 -29t-11 -32q-11 -12 -28 -14t-31 10q-13 12 -15.5 30z" />
<glyph unicode="&#xd0;" horiz-adv-x="944" d="M0 629v71h121v631h127q99 0 182.5 -19.5t142.5 -49t106.5 -76t77 -90t51 -101.5t31.5 -99.5t16 -95t6.5 -77.5t0.5 -57q0 -45 -1.5 -78.5t-13.5 -108t-33 -130.5t-67 -125.5t-108.5 -115t-163.5 -77t-227 -31.5h-127v629h-121zM195 72h57q110 0 198 28t143 67.5t95 101.5 t58.5 111.5t29 116t11.5 97t1 71.5v1q0 31 -0.5 52t-5.5 70t-13.5 85.5t-27.5 88t-44.5 90t-67 79.5t-93 67.5t-124.5 44t-160 17.5h-57v-560h186v-71h-186v-557z" />
<glyph unicode="&#xd1;" horiz-adv-x="929" d="M121 0v1331h57l15 -108q166 137 305 137q79 0 142.5 -27t101.5 -70t58.5 -93t20.5 -101v-1069h-76v1069q0 83 -65 150t-182 67q-135 0 -303 -147v-1139h-74zM217 1505q54 92 135 92q31 0 98.5 -31.5t102.5 -31.5q64 0 102 65l54 -30q-55 -99 -156 -99q-44 0 -111.5 33 t-89.5 33q-47 0 -82 -61z" />
<glyph unicode="&#xd2;" horiz-adv-x="946" d="M121 295v741q0 56 22.5 111.5t64.5 102.5t112 76.5t155 29.5t154.5 -29.5t111.5 -76.5t64 -102.5t22 -111.5v-741q0 -56 -22 -111.5t-64 -102.5t-111.5 -76.5t-154.5 -29.5t-155 29.5t-112 76.5t-64.5 102.5t-22.5 111.5zM195 291q0 -44 18 -86t51 -78t88 -58t123 -22 q130 0 203.5 75t73.5 169v749q0 94 -73.5 169t-203.5 75q-68 0 -123 -22t-88 -58t-51 -78t-18 -86v-749zM274 1571l23 63l369 -149l-17 -53z" />
<glyph unicode="&#xd3;" horiz-adv-x="946" d="M121 295v741q0 56 22.5 111.5t64.5 102.5t112 76.5t155 29.5t154.5 -29.5t111.5 -76.5t64 -102.5t22 -111.5v-741q0 -56 -22 -111.5t-64 -102.5t-111.5 -76.5t-154.5 -29.5t-155 29.5t-112 76.5t-64.5 102.5t-22.5 111.5zM195 291q0 -44 18 -86t51 -78t88 -58t123 -22 q130 0 203.5 75t73.5 169v749q0 94 -73.5 169t-203.5 75q-68 0 -123 -22t-88 -58t-51 -78t-18 -86v-749zM276 1485l371 149l21 -63l-375 -139z" />
<glyph unicode="&#xd4;" horiz-adv-x="946" d="M121 295v741q0 56 22.5 111.5t64.5 102.5t112 76.5t155 29.5t154.5 -29.5t111.5 -76.5t64 -102.5t22 -111.5v-741q0 -56 -22 -111.5t-64 -102.5t-111.5 -76.5t-154.5 -29.5t-155 29.5t-112 76.5t-64.5 102.5t-22.5 111.5zM195 291q0 -44 18 -86t51 -78t88 -58t123 -22 q130 0 203.5 75t73.5 169v749q0 94 -73.5 169t-203.5 75q-68 0 -123 -22t-88 -58t-51 -78t-18 -86v-749zM238 1475l221 192h24l224 -192q-37 -48 -39 -50l-199 172l-195 -172z" />
<glyph unicode="&#xd5;" horiz-adv-x="946" d="M121 295v741q0 56 22.5 111.5t64.5 102.5t112 76.5t155 29.5t154.5 -29.5t111.5 -76.5t64 -102.5t22 -111.5v-741q0 -56 -22 -111.5t-64 -102.5t-111.5 -76.5t-154.5 -29.5t-155 29.5t-112 76.5t-64.5 102.5t-22.5 111.5zM195 291q0 -44 18 -86t51 -78t88 -58t123 -22 q130 0 203.5 75t73.5 169v749q0 94 -73.5 169t-203.5 75q-68 0 -123 -22t-88 -58t-51 -78t-18 -86v-749zM225 1505q54 92 135 92q31 0 98.5 -31.5t102.5 -31.5q65 0 103 65l53 -30q-55 -99 -156 -99q-44 0 -111.5 33t-89.5 33q-46 0 -81 -61z" />
<glyph unicode="&#xd6;" horiz-adv-x="946" d="M121 295v741q0 56 22.5 111.5t64.5 102.5t112 76.5t155 29.5t154.5 -29.5t111.5 -76.5t64 -102.5t22 -111.5v-741q0 -56 -22 -111.5t-64 -102.5t-111.5 -76.5t-154.5 -29.5t-155 29.5t-112 76.5t-64.5 102.5t-22.5 111.5zM195 291q0 -44 18 -86t51 -78t88 -58t123 -22 q130 0 203.5 75t73.5 169v749q0 94 -73.5 169t-203.5 75q-68 0 -123 -22t-88 -58t-51 -78t-18 -86v-749zM276 1505q-2 18 9 31q12 14 29.5 15t31.5 -11q12 -11 14 -29t-10 -32q-11 -12 -28 -14t-31 10q-13 12 -15 30zM579 1505q-2 18 9 31q12 14 29.5 15t31.5 -11 q14 -11 15 -29t-11 -32q-11 -12 -28 -14t-31 10q-13 12 -15 30z" />
<glyph unicode="&#xd7;" d="M129 455l209 209l-209 210l49 52l211 -211l211 211l49 -49l-211 -213l211 -211l-49 -50l-211 211l-211 -208z" />
<glyph unicode="&#xd8;" horiz-adv-x="946" d="M121 295v741q0 56 22.5 111.5t64.5 102.5t112 76.5t155 29.5q136 0 232 -76l38 92l58 -24l-49 -113q73 -88 73 -199v-741q0 -56 -22 -111.5t-64 -102.5t-111.5 -76.5t-154.5 -29.5q-137 0 -233 76l-39 -90l-58 27l48 110q-72 87 -72 197zM195 291q0 -61 30 -117l451 1036 q-81 74 -201 74q-68 0 -123 -22t-88 -58t-51 -78t-18 -86v-749zM270 119q79 -72 205 -72q130 0 203.5 75t73.5 169v749q0 62 -33 115z" />
<glyph unicode="&#xd9;" horiz-adv-x="940" d="M121 262v1069h74v-1069q0 -82 66 -148.5t183 -66.5q134 0 301 146v1138h76v-1331h-57l-16 109q-167 -138 -304 -138q-79 0 -142.5 27t-101.5 70t-58.5 93t-20.5 101zM272 1571l23 63l369 -149l-17 -53z" />
<glyph unicode="&#xda;" horiz-adv-x="940" d="M121 262v1069h74v-1069q0 -82 66 -148.5t183 -66.5q134 0 301 146v1138h76v-1331h-57l-16 109q-167 -138 -304 -138q-79 0 -142.5 27t-101.5 70t-58.5 93t-20.5 101zM272 1485l371 149l21 -63l-375 -139z" />
<glyph unicode="&#xdb;" horiz-adv-x="940" d="M121 262v1069h74v-1069q0 -82 66 -148.5t183 -66.5q134 0 301 146v1138h76v-1331h-57l-16 109q-167 -138 -304 -138q-79 0 -142.5 27t-101.5 70t-58.5 93t-20.5 101zM236 1475l221 192h24l224 -192q-37 -48 -39 -50l-199 172l-195 -172z" />
<glyph unicode="&#xdc;" horiz-adv-x="940" d="M121 262v1069h74v-1069q0 -82 66 -148.5t183 -66.5q134 0 301 146v1138h76v-1331h-57l-16 109q-167 -138 -304 -138q-79 0 -142.5 27t-101.5 70t-58.5 93t-20.5 101zM274 1505q-2 18 9 31q12 14 29.5 15t31.5 -11q12 -11 14 -29t-10 -32q-11 -12 -28 -14t-31 10 q-13 12 -15 30zM577 1505q-2 18 9 31q12 14 29.5 15t31.5 -11q14 -11 15 -29t-11 -32q-11 -12 -28 -14t-31 10q-13 12 -15 30z" />
<glyph unicode="&#xdd;" horiz-adv-x="987" d="M68 1324v7h73v-4q0 -66 1.5 -108t12.5 -130.5t31.5 -152t63.5 -149t103 -147.5t156 -121.5t216 -94.5q54 141 85.5 335t38.5 321.5t7 250.5h76q0 -67 -2.5 -132t-10 -168t-20.5 -195.5t-37 -202t-55.5 -200t-80 -178t-107.5 -147.5t-140 -96.5t-176 -36.5q-72 0 -158 25 l25 68q70 -21 133 -21q249 0 395 309q-130 39 -233 103.5t-168 131.5t-111.5 158t-68.5 159t-34 162t-13.5 139t-1.5 115zM295 1485l371 149l20 -63l-375 -139z" />
<glyph unicode="&#xde;" horiz-adv-x="813" d="M145 0v1331h74v-276h221q21 0 45 -2.5t61.5 -12t71 -25.5t69.5 -46t62 -69t43 -99.5t17 -134.5t-17 -134.5t-43 -100t-62 -69.5t-70 -45.5t-71 -25.5t-61 -12.5t-45 -2.5h-221v-276h-74zM219 348h221q25 0 54.5 5t75 24.5t80 51.5t60 93.5t25.5 143.5t-25.5 143.5 t-60 93.5t-80 51.5t-75 24t-54.5 4.5h-221v-635z" />
<glyph unicode="&#xdf;" horiz-adv-x="1019" d="M133 0v1083q0 119 82 206t211 87t210 -87t81 -206v-202q-78 0 -130 -40t-52 -110q0 -50 41.5 -97.5t100.5 -88.5t118.5 -85t101 -104.5t41.5 -130.5q0 -102 -78.5 -169.5t-189.5 -67.5q-72 0 -135 31t-103 90l66 34q63 -84 172 -84q80 0 136 48.5t56 117.5q0 43 -22 82 t-58 69.5t-79 59.5t-85.5 59.5t-78.5 63.5t-58 77.5t-22 94.5q0 91 53 144t131 65v145q0 89 -60.5 154.5t-156.5 65.5q-97 0 -158 -65.5t-61 -154.5v-1085h-74z" />
<glyph unicode="&#xe0;" horiz-adv-x="878" d="M84 276q0 122 86.5 196.5t212.5 74.5h301v151q0 91 -61.5 135t-161.5 44q-140 0 -289 -66l-33 63q158 74 322 74q135 0 217 -61.5t82 -190.5v-671q-141 -41 -297 -41q-61 0 -114.5 8.5t-103 29.5t-84.5 53.5t-56 84t-21 116.5zM158 276q0 -61 24.5 -105.5t68.5 -69 t95.5 -35.5t114.5 -11q105 0 223 27v393h-301q-95 0 -160 -53.5t-65 -145.5zM242 1178l22 65l369 -151l-17 -54z" />
<glyph unicode="&#xe1;" horiz-adv-x="878" d="M84 276q0 122 86.5 196.5t212.5 74.5h301v151q0 91 -61.5 135t-161.5 44q-140 0 -289 -66l-33 63q158 74 322 74q135 0 217 -61.5t82 -190.5v-671q-141 -41 -297 -41q-61 0 -114.5 8.5t-103 29.5t-84.5 53.5t-56 84t-21 116.5zM158 276q0 -61 24.5 -105.5t68.5 -69 t95.5 -35.5t114.5 -11q105 0 223 27v393h-301q-95 0 -160 -53.5t-65 -145.5zM242 1092l370 151l21 -65l-375 -140z" />
<glyph unicode="&#xe2;" horiz-adv-x="878" d="M84 276q0 122 86.5 196.5t212.5 74.5h301v151q0 91 -61.5 135t-161.5 44q-140 0 -289 -66l-33 63q158 74 322 74q135 0 217 -61.5t82 -190.5v-671q-141 -41 -297 -41q-61 0 -114.5 8.5t-103 29.5t-84.5 53.5t-56 84t-21 116.5zM158 276q0 -61 24.5 -105.5t68.5 -69 t95.5 -35.5t114.5 -11q105 0 223 27v393h-301q-95 0 -160 -53.5t-65 -145.5zM205 1081l221 195h25l223 -195q-37 -47 -39 -47l-199 172l-194 -172z" />
<glyph unicode="&#xe3;" horiz-adv-x="878" d="M84 276q0 122 86.5 196.5t212.5 74.5h301v151q0 91 -61.5 135t-161.5 44q-140 0 -289 -66l-33 63q158 74 322 74q135 0 217 -61.5t82 -190.5v-671q-141 -41 -297 -41q-61 0 -114.5 8.5t-103 29.5t-84.5 53.5t-56 84t-21 116.5zM158 276q0 -61 24.5 -105.5t68.5 -69 t95.5 -35.5t114.5 -11q105 0 223 27v393h-301q-95 0 -160 -53.5t-65 -145.5zM193 1114q54 92 135 92q31 0 98 -32.5t102 -32.5q66 0 103 67l53 -30q-55 -101 -156 -101q-44 0 -111 33t-89 33q-47 0 -82 -60z" />
<glyph unicode="&#xe4;" horiz-adv-x="878" d="M84 276q0 122 86.5 196.5t212.5 74.5h301v151q0 91 -61.5 135t-161.5 44q-140 0 -289 -66l-33 63q158 74 322 74q135 0 217 -61.5t82 -190.5v-671q-141 -41 -297 -41q-61 0 -114.5 8.5t-103 29.5t-84.5 53.5t-56 84t-21 116.5zM158 276q0 -61 24.5 -105.5t68.5 -69 t95.5 -35.5t114.5 -11q105 0 223 27v393h-301q-95 0 -160 -53.5t-65 -145.5zM243 1111.5q-2 18.5 9 31.5q12 14 29.5 16t31.5 -10q12 -12 14 -30t-10 -32q-11 -14 -28 -15t-31 11q-13 10 -15 28.5zM546 1111.5q-2 18.5 9 31.5q12 14 29.5 16t31.5 -10t15.5 -30t-10.5 -32 q-11 -14 -28.5 -15t-31.5 11q-13 10 -15 28.5z" />
<glyph unicode="&#xe5;" horiz-adv-x="878" d="M84 276q0 122 86.5 196.5t212.5 74.5h301v151q0 91 -61.5 135t-161.5 44q-140 0 -289 -66l-33 63q84 41 187 60q-72 62 -72 156q0 83 59 141.5t142 58.5q85 0 143.5 -58.5t58.5 -141.5q0 -95 -73 -158q82 -23 129 -81.5t47 -154.5v-671q-141 -41 -297 -41 q-61 0 -114.5 8.5t-103 29.5t-84.5 53.5t-56 84t-21 116.5zM158 276q0 -61 24.5 -105.5t68.5 -69t95.5 -35.5t114.5 -11q105 0 223 27v393h-301q-95 0 -160 -53.5t-65 -145.5zM315 1090q0 -54 37.5 -96t89.5 -46h13q58 0 99.5 42.5t41.5 99.5t-41.5 98t-99.5 41 q-57 0 -98.5 -41t-41.5 -98z" />
<glyph unicode="&#xe6;" horiz-adv-x="1474" d="M84 276q0 122 86 192.5t213 70.5h266q10 124 35 178q-6 81 -66.5 120.5t-156.5 39.5q-140 0 -289 -66l-33 63q158 74 322 74q226 0 280 -155q103 153 291 153q163 0 262 -125.5t99 -341.5v-61h-668q6 -90 34.5 -159.5t74.5 -112.5t104 -65t125 -22q116 0 250 64l35 -64 q-139 -71 -285 -71q-123 0 -223 59q-84 -27 -191.5 -45t-185.5 -18q-61 0 -114.5 8.5t-103 29.5t-84.5 53.5t-56 84t-21 116.5zM158 276q0 -61 24.5 -105.5t68.5 -69t95.5 -35.5t114.5 -11q64 0 155 13.5t164 35.5q-136 122 -131 363h-266q-96 0 -160.5 -50t-64.5 -141z M727 489h588q-3 179 -80 282t-207 103q-133 0 -215.5 -104t-85.5 -281z" />
<glyph unicode="&#xe7;" horiz-adv-x="782" d="M84 467q0 214 111.5 346.5t285.5 132.5q64 0 130.5 -25t115.5 -63l-43 -57q-42 32 -96.5 52.5t-106.5 20.5q-142 0 -232.5 -113t-90.5 -294t90.5 -294.5t232.5 -113.5q107 0 203 74l43 -59q-44 -35 -104.5 -59t-118.5 -25v-105q52 -10 92.5 -43.5t40.5 -83.5 q0 -47 -37 -82.5t-94 -35.5q-54 0 -115 34l29 54q52 -27 86 -27q30 0 48.5 16.5t18.5 40.5q0 35 -41.5 58t-89.5 26v148q-159 14 -258.5 145t-99.5 332z" />
<glyph unicode="&#xe8;" horiz-adv-x="909" d="M84 467q0 216 103 347.5t274 131.5q169 0 266.5 -131t97.5 -348v-61h-663q14 -170 106.5 -258.5t229.5 -88.5q116 0 250 64l34 -64q-139 -71 -284 -71q-86 0 -160 29.5t-131 87t-90 150.5t-33 212zM160 477h590q2 176 -76 286.5t-213 110.5t-217.5 -108t-83.5 -289z M258 1178l23 65l368 -151l-16 -54z" />
<glyph unicode="&#xe9;" horiz-adv-x="909" d="M84 467q0 216 103 347.5t274 131.5q169 0 266.5 -131t97.5 -348v-61h-663q14 -170 106.5 -258.5t229.5 -88.5q116 0 250 64l34 -64q-139 -71 -284 -71q-86 0 -160 29.5t-131 87t-90 150.5t-33 212zM160 477h590q2 176 -76 286.5t-213 110.5t-217.5 -108t-83.5 -289z M258 1092l371 151l20 -65l-375 -140z" />
<glyph unicode="&#xea;" horiz-adv-x="909" d="M84 467q0 216 103 347.5t274 131.5q169 0 266.5 -131t97.5 -348v-61h-663q14 -170 106.5 -258.5t229.5 -88.5q116 0 250 64l34 -64q-139 -71 -284 -71q-86 0 -160 29.5t-131 87t-90 150.5t-33 212zM160 477h590q2 176 -76 286.5t-213 110.5t-217.5 -108t-83.5 -289z M219 1081l221 195h25l223 -195q-37 -47 -39 -47l-198 172l-195 -172z" />
<glyph unicode="&#xeb;" horiz-adv-x="909" d="M84 467q0 216 103 347.5t274 131.5q169 0 266.5 -131t97.5 -348v-61h-663q14 -170 106.5 -258.5t229.5 -88.5q116 0 250 64l34 -64q-139 -71 -284 -71q-86 0 -160 29.5t-131 87t-90 150.5t-33 212zM160 477h590q2 176 -76 286.5t-213 110.5t-217.5 -108t-83.5 -289z M259 1111.5q-2 18.5 9 31.5q12 14 30 16t32 -10q12 -12 14 -30t-10 -32q-11 -14 -28.5 -15t-31.5 11q-13 10 -15 28.5zM562.5 1111.5q-2.5 18.5 8.5 31.5q12 14 30 16t32 -10t15 -30t-11 -32q-11 -14 -28 -15t-31 11q-13 10 -15.5 28.5z" />
<glyph unicode="&#xec;" horiz-adv-x="321" d="M-33 1178l23 65l368 -151l-16 -54zM125 0v932h74v-932h-74z" />
<glyph unicode="&#xed;" horiz-adv-x="321" d="M-33 1092l371 151l20 -65l-374 -140zM125 0v932h74v-932h-74z" />
<glyph unicode="&#xee;" horiz-adv-x="321" d="M-70 1081l222 195h24l223 -195q-37 -47 -39 -47l-198 172l-195 -172zM125 0v932h74v-932h-74z" />
<glyph unicode="&#xef;" horiz-adv-x="321" d="M-31.5 1111.5q-2.5 18.5 8.5 31.5q12 14 30 16t32 -10q12 -12 14 -30t-10 -32q-11 -14 -28 -15t-31 11q-13 10 -15.5 28.5zM125 0v932h74v-932h-74zM272 1111.5q-2 18.5 9 31.5q12 14 29.5 16t31.5 -10t15 -30t-11 -32q-11 -14 -28 -15t-31 11q-13 10 -15 28.5z" />
<glyph unicode="&#xf0;" horiz-adv-x="911" d="M57 467q0 92 31 177t86.5 147t125.5 98.5t155 34.5t168 -47q-20 34 -56 85.5t-81 113.5t-64 89l-135 -92l-35 53l133 91q-5 7 -32.5 47.5t-35.5 54.5l62 41q16 -25 70 -100l145 100l37 -53l-148 -101q83 -115 130.5 -183.5t100.5 -153.5t79 -145t43.5 -127t17.5 -130 q0 -216 -111.5 -348.5t-289.5 -132.5q-173 0 -284.5 133t-111.5 348zM131 467q0 -182 90.5 -296t231.5 -114q143 0 234 114t91 296q0 105 -35 195t-108.5 148t-171.5 58q-93 0 -170.5 -58t-119.5 -149.5t-42 -193.5z" />
<glyph unicode="&#xf1;" horiz-adv-x="935" d="M121 0v932h57l15 -103q70 49 152.5 83t154.5 34q132 0 224.5 -94.5t92.5 -218.5v-633h-74v637q0 94 -70.5 165.5t-172.5 71.5q-72 0 -155 -35.5t-150 -86.5v-752h-74zM221 1114q54 92 135 92q31 0 98.5 -32.5t102.5 -32.5q65 0 102 67l54 -30q-55 -101 -156 -101 q-44 0 -111.5 33t-89.5 33q-47 0 -82 -60z" />
<glyph unicode="&#xf2;" horiz-adv-x="964" d="M84 467q0 214 111 346.5t284 132.5q178 0 290 -132.5t112 -346.5q0 -215 -112 -347t-290 -132q-173 0 -284 132t-111 347zM158 467q0 -182 90 -295t231 -113q143 0 234.5 113t91.5 295q0 181 -91.5 294t-234.5 113q-140 0 -230.5 -113.5t-90.5 -293.5zM285 1178l22 65 l369 -151l-17 -54z" />
<glyph unicode="&#xf3;" horiz-adv-x="964" d="M84 467q0 214 111 346.5t284 132.5q178 0 290 -132.5t112 -346.5q0 -215 -112 -347t-290 -132q-173 0 -284 132t-111 347zM158 467q0 -182 90 -295t231 -113q143 0 234.5 113t91.5 295q0 181 -91.5 294t-234.5 113q-140 0 -230.5 -113.5t-90.5 -293.5zM285 1092l370 151 l21 -65l-375 -140z" />
<glyph unicode="&#xf4;" horiz-adv-x="964" d="M84 467q0 214 111 346.5t284 132.5q178 0 290 -132.5t112 -346.5q0 -215 -112 -347t-290 -132q-173 0 -284 132t-111 347zM158 467q0 -182 90 -295t231 -113q143 0 234.5 113t91.5 295q0 181 -91.5 294t-234.5 113q-140 0 -230.5 -113.5t-90.5 -293.5zM248 1081l221 195 h25l223 -195q-37 -47 -39 -47l-199 172l-194 -172z" />
<glyph unicode="&#xf5;" horiz-adv-x="964" d="M84 467q0 214 111 346.5t284 132.5q178 0 290 -132.5t112 -346.5q0 -215 -112 -347t-290 -132q-173 0 -284 132t-111 347zM158 467q0 -182 90 -295t231 -113q143 0 234.5 113t91.5 295q0 181 -91.5 294t-234.5 113q-140 0 -230.5 -113.5t-90.5 -293.5zM236 1114 q54 92 135 92q31 0 98 -32.5t102 -32.5q66 0 103 67l53 -30q-55 -101 -156 -101q-44 0 -111 33t-89 33q-47 0 -82 -60z" />
<glyph unicode="&#xf6;" horiz-adv-x="964" d="M84 467q0 214 111 346.5t284 132.5q178 0 290 -132.5t112 -346.5q0 -215 -112 -347t-290 -132q-173 0 -284 132t-111 347zM158 467q0 -182 90 -295t231 -113q143 0 234.5 113t91.5 295q0 181 -91.5 294t-234.5 113q-140 0 -230.5 -113.5t-90.5 -293.5zM286 1111.5 q-2 18.5 9 31.5q12 14 29.5 16t31.5 -10q12 -12 14 -30t-10 -32q-11 -14 -28 -15t-31 11q-13 10 -15 28.5zM589 1111.5q-2 18.5 9 31.5q12 14 29.5 16t31.5 -10t15.5 -30t-10.5 -32q-11 -14 -28.5 -15t-31.5 11q-13 10 -15 28.5z" />
<glyph unicode="&#xf7;" d="M57 631v71h666v-71h-666zM322 385q0 29 19.5 49.5t47.5 20.5t49 -20.5t21 -49.5t-21 -49.5t-49 -20.5t-47.5 20.5t-19.5 49.5zM322 948q0 28 20 49t47 21q28 0 49 -21t21 -49q0 -29 -21 -49t-49 -20t-47.5 20t-19.5 49z" />
<glyph unicode="&#xf8;" horiz-adv-x="964" d="M84 467q0 214 111 346.5t284 132.5q96 0 178 -45l33 68l62 -27l-37 -76q78 -63 122 -166t44 -233q0 -215 -112 -347t-290 -132q-95 0 -172 41l-31 -64l-55 31l33 67q-80 61 -125 165.5t-45 238.5zM158 467q0 -220 129 -336l340 705q-65 38 -148 38q-140 0 -230.5 -113.5 t-90.5 -293.5zM338 94q65 -35 141 -35q143 0 234.5 113t91.5 295q0 104 -33 189.5t-92 140.5z" />
<glyph unicode="&#xf9;" horiz-adv-x="937" d="M121 311v621h74v-625q0 -99 71 -173.5t176 -74.5q71 0 153.5 34.5t149.5 84.5v754h74v-932h-57l-14 102q-69 -48 -151.5 -81t-154.5 -33q-136 0 -228.5 97t-92.5 226zM272 1178l23 65l369 -151l-17 -54z" />
<glyph unicode="&#xfa;" horiz-adv-x="937" d="M121 311v621h74v-625q0 -99 71 -173.5t176 -74.5q71 0 153.5 34.5t149.5 84.5v754h74v-932h-57l-14 102q-69 -48 -151.5 -81t-154.5 -33q-136 0 -228.5 97t-92.5 226zM272 1092l371 151l21 -65l-375 -140z" />
<glyph unicode="&#xfb;" horiz-adv-x="937" d="M121 311v621h74v-625q0 -99 71 -173.5t176 -74.5q71 0 153.5 34.5t149.5 84.5v754h74v-932h-57l-14 102q-69 -48 -151.5 -81t-154.5 -33q-136 0 -228.5 97t-92.5 226zM233 1081l222 195h24l223 -195q-36 -47 -38 -47l-199 172l-195 -172z" />
<glyph unicode="&#xfc;" horiz-adv-x="937" d="M121 311v621h74v-625q0 -99 71 -173.5t176 -74.5q71 0 153.5 34.5t149.5 84.5v754h74v-932h-57l-14 102q-69 -48 -151.5 -81t-154.5 -33q-136 0 -228.5 97t-92.5 226zM274 1111.5q-2 18.5 9 31.5q12 14 29.5 16t31.5 -10q12 -12 14 -30t-10 -32q-11 -14 -28 -15t-31 11 q-13 10 -15 28.5zM577 1111.5q-2 18.5 9 31.5q12 14 29.5 16t31.5 -10t15 -30t-11 -32q-11 -14 -28 -15t-31 11q-13 10 -15 28.5z" />
<glyph unicode="&#xfd;" horiz-adv-x="899" d="M98 -346l33 63q126 -63 252 -63q76 0 139 27.5t111 84t72.5 151t17.5 218.5q-67 -67 -148 -107t-153 -40q-136 0 -229 97t-93 226v621h74v-625q0 -99 71.5 -173.5t176.5 -74.5q75 0 157.5 44t143.5 114v715h76v-869q0 -118 -33.5 -211t-91.5 -150.5t-132 -87.5t-159 -30 q-148 0 -285 70zM252 1092l371 151l20 -65l-375 -140z" />
<glyph unicode="&#xfe;" horiz-adv-x="921" d="M121 -410v1741h74v-530q67 67 147 107t156 40q67 0 127.5 -27t109 -79t77 -136.5t28.5 -189.5q0 -248 -137.5 -389t-354.5 -141q-61 0 -153 18v-414h-74zM195 80q84 -19 153 -19q183 0 300.5 121t117.5 334q0 171 -78.5 263.5t-189.5 92.5q-79 0 -160.5 -48t-142.5 -124 v-620z" />
<glyph unicode="&#xff;" horiz-adv-x="899" d="M98 -346l33 63q126 -63 252 -63q76 0 139 27.5t111 84t72.5 151t17.5 218.5q-67 -67 -148 -107t-153 -40q-136 0 -229 97t-93 226v621h74v-625q0 -99 71.5 -173.5t176.5 -74.5q75 0 157.5 44t143.5 114v715h76v-869q0 -118 -33.5 -211t-91.5 -150.5t-132 -87.5t-159 -30 q-148 0 -285 70zM253 1111.5q-2 18.5 9 31.5q12 14 30 16t32 -10q12 -12 14 -30t-10 -32q-11 -14 -28.5 -15t-31.5 11q-13 10 -15 28.5zM556 1111.5q-2 18.5 9 31.5q12 14 30 16t32 -10t15 -30t-11 -32q-11 -14 -28.5 -15t-31.5 11q-13 10 -15 28.5z" />
<glyph unicode="&#x152;" horiz-adv-x="1439" d="M121 295v741q0 56 22.5 111.5t64.5 102.5t112 76.5t155 29.5q97 0 167 -39.5t110 -104.5v119h551v-74h-476v-530h340v-70h-340v-581h531v-76h-606v117q-40 -64 -110 -103t-167 -39q-85 0 -155 29.5t-112 76.5t-64.5 102.5t-22.5 111.5zM195 291q0 -44 18 -86t51 -78 t88 -58t123 -22q127 0 200.5 72.5t76.5 165.5v762q-3 93 -76.5 165t-200.5 72q-68 0 -123 -22t-88 -58t-51 -78t-18 -86v-749z" />
<glyph unicode="&#x153;" horiz-adv-x="1632" d="M84 467q0 214 111 346.5t284 132.5q129 0 225 -76t136 -208q37 132 127.5 208t216.5 76q169 0 267.5 -131t98.5 -348v-61h-665q14 -170 106.5 -258.5t229.5 -88.5q115 0 249 64l35 -64q-142 -71 -284 -71q-134 0 -236.5 72t-142.5 210q-40 -131 -136.5 -206.5 t-226.5 -75.5q-173 0 -284 132t-111 347zM158 467q0 -182 90 -295t231 -113q143 0 234.5 113t91.5 295q-3 185 -93.5 296t-232.5 111q-140 0 -230.5 -113.5t-90.5 -293.5zM883 477h590q2 176 -76 286.5t-213 110.5t-217.5 -108t-83.5 -289z" />
<glyph unicode="&#x178;" horiz-adv-x="987" d="M68 1324v7h73v-4q0 -66 1.5 -108t12.5 -130.5t31.5 -152t63.5 -149t103 -147.5t156 -121.5t216 -94.5q54 141 85.5 335t38.5 321.5t7 250.5h76q0 -67 -2.5 -132t-10 -168t-20.5 -195.5t-37 -202t-55.5 -200t-80 -178t-107.5 -147.5t-140 -96.5t-176 -36.5q-72 0 -158 25 l25 68q70 -21 133 -21q249 0 395 309q-130 39 -233 103.5t-168 131.5t-111.5 158t-68.5 159t-34 162t-13.5 139t-1.5 115zM296 1505q-2 18 9 31q12 14 30 15t32 -11q12 -11 14 -29t-10 -32q-11 -12 -28.5 -14t-31.5 10q-13 12 -15 30zM599 1505q-2 18 9 31q12 14 30 15 t32 -11q14 -11 15 -29t-11 -32q-11 -12 -28.5 -14t-31.5 10q-13 12 -15 30z" />
<glyph unicode="&#x2c6;" horiz-adv-x="681" d="M109 1081l221 195h24l224 -195q-37 -47 -39 -47l-199 172l-195 -172z" />
<glyph unicode="&#x2dc;" horiz-adv-x="712" d="M113 1114q54 92 135 92q31 0 98.5 -32.5t102.5 -32.5q65 0 102 67l53 -30q-55 -101 -155 -101q-44 0 -111.5 33t-89.5 33q-47 0 -82 -60z" />
<glyph unicode="&#x2000;" horiz-adv-x="849" />
<glyph unicode="&#x2001;" horiz-adv-x="1698" />
<glyph unicode="&#x2002;" horiz-adv-x="849" />
<glyph unicode="&#x2003;" horiz-adv-x="1698" />
<glyph unicode="&#x2004;" horiz-adv-x="566" />
<glyph unicode="&#x2005;" horiz-adv-x="424" />
<glyph unicode="&#x2006;" horiz-adv-x="283" />
<glyph unicode="&#x2007;" horiz-adv-x="283" />
<glyph unicode="&#x2008;" horiz-adv-x="212" />
<glyph unicode="&#x2009;" horiz-adv-x="339" />
<glyph unicode="&#x200a;" horiz-adv-x="94" />
<glyph unicode="&#x2010;" d="M57 631v71h666v-71h-666z" />
<glyph unicode="&#x2011;" d="M57 631v71h666v-71h-666z" />
<glyph unicode="&#x2012;" d="M57 631v71h666v-71h-666z" />
<glyph unicode="&#x2013;" horiz-adv-x="964" d="M57 631v71h852v-71h-852z" />
<glyph unicode="&#x2014;" horiz-adv-x="1337" d="M57 631v71h1225v-71h-1225z" />
<glyph unicode="&#x2018;" horiz-adv-x="256" d="M59 1133q0 38 19.5 97.5t64.5 117.5l11 -2l-21 -144q27 -2 45.5 -21t18.5 -48q0 -28 -20 -49t-48 -21q-29 0 -49.5 21t-20.5 49z" />
<glyph unicode="&#x2019;" horiz-adv-x="256" d="M59 1278q0 28 21 49t49 21t48 -21t20 -49q0 -37 -19 -96t-63 -119l-13 2l21 143q-26 2 -45 22t-19 48z" />
<glyph unicode="&#x201a;" horiz-adv-x="282" d="M74 53q0 29 19.5 49.5t47.5 20.5t49 -20.5t21 -49.5q0 -38 -19.5 -96.5t-64.5 -118.5l-12 2l22 144q-26 2 -44.5 21.5t-18.5 47.5z" />
<glyph unicode="&#x201c;" horiz-adv-x="501" d="M59 1133q0 38 19.5 97.5t64.5 117.5l11 -2l-21 -144q27 -2 45.5 -21t18.5 -48q0 -28 -20 -49t-48 -21q-29 0 -49.5 21t-20.5 49zM305 1133q0 38 19 97.5t63 117.5l12 -2l-20 -144q27 -2 45 -21t18 -48q0 -28 -20 -49t-47 -21q-29 0 -49.5 21t-20.5 49z" />
<glyph unicode="&#x201d;" horiz-adv-x="501" d="M59 1278q0 28 21 49t49 21t48 -21t20 -49q0 -37 -19 -96t-63 -119l-13 2l21 143q-26 2 -45 22t-19 48zM305 1278q0 28 20 49t48 21q29 0 49 -21t20 -49q0 -37 -19 -96t-63 -119l-12 2l21 143q-26 2 -45 22t-19 48z" />
<glyph unicode="&#x201e;" horiz-adv-x="528" d="M74 53q0 29 19.5 49.5t47.5 20.5t49 -20.5t21 -49.5q0 -38 -19.5 -96.5t-64.5 -118.5l-12 2l22 144q-26 2 -44.5 21.5t-18.5 47.5zM317 53q0 29 21 49.5t49 20.5t49 -20.5t21 -49.5q0 -38 -19.5 -96.5t-64.5 -118.5l-13 2l21 144q-25 2 -44.5 22t-19.5 47z" />
<glyph unicode="&#x2022;" horiz-adv-x="399" d="M57 627q0 58 42.5 100.5t99.5 42.5q59 0 101 -42t42 -101q0 -60 -42 -103t-101 -43q-57 0 -99.5 43t-42.5 103z" />
<glyph unicode="&#x2026;" horiz-adv-x="847" d="M74 53q0 30 19 50t48 20t49.5 -20.5t20.5 -49.5t-20 -48t-50 -19q-29 0 -48 19t-19 48zM356 53q0 29 19.5 49.5t48.5 20.5t49.5 -20.5t20.5 -49.5t-20 -48t-50 -19q-29 0 -48.5 19t-19.5 48zM639 53q0 29 19.5 49.5t48.5 20.5t49 -20.5t20 -49.5t-20 -48t-49 -19 t-48.5 19t-19.5 48z" />
<glyph unicode="&#x202f;" horiz-adv-x="339" />
<glyph unicode="&#x2039;" horiz-adv-x="565" d="M57 528v62l310 299l47 -58l-277 -272l277 -272l-47 -58z" />
<glyph unicode="&#x203a;" horiz-adv-x="565" d="M154 287l278 272l-278 272l49 58l309 -299v-62l-309 -299z" />
<glyph unicode="&#x205f;" horiz-adv-x="424" />
<glyph unicode="&#x20ac;" horiz-adv-x="729" d="M57 666q0 33 0.5 57t6.5 77.5t16 95t31.5 99.5t51 101.5t77 89.5t107 76t143 49.5t182.5 19.5v-71q-109 0 -197 -27t-142.5 -67.5t-95 -98.5t-59.5 -109.5t-31 -111.5h490v-72h-502q-4 -47 -4 -108q0 -64 4 -109h502v-72h-490q8 -41 20 -78.5t33 -80t48.5 -78t68.5 -69 t90.5 -56.5t117.5 -37t147 -14v-72q-99 0 -182.5 19.5t-143 49.5t-107 76.5t-77 90t-51 101.5t-31.5 99.5t-16 95t-6.5 77.5t-0.5 57z" />
<glyph unicode="&#x2122;" horiz-adv-x="1505" d="M57 1262v69h451v-69h-191v-664h-69v664h-191zM526 598v481q0 106 65.5 190.5t178.5 84.5q74 0 128.5 -42t82.5 -108q27 66 81 108t128 42q78 0 135.5 -43t84 -104t26.5 -128v-481h-70v481q0 79 -46.5 144t-129.5 65q-82 0 -129 -65t-47 -144v-481h-66v481q0 79 -47.5 144 t-130.5 65q-82 0 -128 -65t-46 -144v-481h-70z" />
<glyph unicode="&#x25fc;" horiz-adv-x="931" d="M0 0v932h932v-932h-932z" />
</font>
</defs>
</svg>
